# xmcd
#
# Track frame offsets:
#	150
#	48532
#	73190
#	102242
#	132484
#
# Disc length: 2461 seconds
#
# Revision: 0
# Processed by: cddbd v1.5.2PL0 Copyright (c) Steve Scherf et al.
# Submitted via: dBpowerAMP V4.0
#
DISCID=49099b05
DTITLE=tttt - tttt
DYEAR=2008
DGENRE=Acapella
TTITLE0=1
TTITLE1=2
TTITLE2=2
TTITLE3=4
TTITLE4=5
EXTD=hhh
EXTT0=
EXTT1=
EXTT2=
EXTT3=
EXTT4=
PLAYORDER=
